HIERARCHY
ROOT Torso
{
    OFFSET 0 0 0
    CHANNELS 6 Xposition Yposition Zposition Zrotation Yrotation Xrotation
    JOINT LHip1 
    {   
        OFFSET 0.01 -0.06 0
        CHANNELS 3 Zrotation Yrotation Xrotation
        JOINT LHip2
        {
            OFFSET 0 -0.055 -0.055
            CHANNELS 3 Zrotation Yrotation Xrotation
            JOINT LHip3
            {
                OFFSET -0.01 0 0
                CHANNELS 3 Zrotation Yrotation Xrotation
                JOINT LThigh
                {
                    OFFSET 0 0 0.01
                    CHANNELS 3 Zrotation Yrotation Xrotation
                    JOINT LLeg
                    {
                        OFFSET -0.014 -0.120 -0.01
                        CHANNELS 3 Zrotation Yrotation Xrotation
                        JOINT LFoot
                        {
                            OFFSET 0.01 -0.1 0
                            CHANNELS 3 Zrotation Yrotation Xrotation
                            End Site
                            {
                                OFFSET -0.090 -0.035 0
                            }
                        }
                    }
                }
            }
        }
    }
    JOINT RHip1 
    {   
        OFFSET 0.01 -0.06 0
        CHANNELS 3 Zrotation Yrotation Xrotation
        JOINT RHip2
        {
            OFFSET 0 -0.055 0.055
            CHANNELS 3 Zrotation Yrotation Xrotation
            JOINT RHip3
            {
                OFFSET -0.01 0 0
                CHANNELS 3 Zrotation Yrotation Xrotation
                JOINT RThigh
                {
                    OFFSET 0 0 0.01
                    CHANNELS 3 Zrotation Yrotation Xrotation
                    JOINT RLeg
                    {
                        OFFSET -0.014 -0.120 -0.01
                        CHANNELS 3 Zrotation Yrotation Xrotation
                        JOINT RFoot
                        {
                            OFFSET 0.01 -0.1 0
                            CHANNELS 3 Zrotation Yrotation Xrotation
                            End Site
                            {
                                OFFSET -0.090 -0.035 0
                            }
                        }
                    }
                }
            }
        }
    }
    JOINT Neck
    {
        OFFSET 0 0.04 0
        CHANNELS 3 Zrotation Yrotation Xrotation
        JOINT Head
        {
            OFFSET 0 0.1 0
            CHANNELS 3 Zrotation Yrotation Xrotation
            End Site 
            {
                OFFSET 0 0.07 0
            }
        }
    }
    JOINT LUpperarm
    {
        OFFSET 0 0.075 -0.098
        CHANNELS 3 Zrotation Yrotation Xrotation
        JOINT LLowerarm
        {
            OFFSET -0.09 0.009 0
            CHANNELS 3 Zrotation Yrotation Xrotation
            End Site
            {
                OFFSET -0.105 0 0
            }
        }
    }
    JOINT RUpperarm
    {
        OFFSET 0 0.075 0.098
        CHANNELS 3 Zrotation Yrotation Xrotation
        JOINT RLowerarm
        {
            OFFSET -0.09 0.009 0
            CHANNELS 3 Zrotation Yrotation Xrotation
            End Site
            {
                OFFSET -0.105 0 0
            }
        }
    }
}
MOTION
Frames: 58
Frame Time: 0.02
0 0 0 0 0 0 0 -0.0 0 0 0.0 0 71.04 0 0 0 0 0 -102.44 0 0 34.15 0.0 0 0 -0.0 0 0 -0.0 0 71.04 0 0 0 0 0 -102.44 0 0 34.15 -0.0 0 0 -0.0 0 -0.0 0 0 -0.0 0 -0.0 0 0.0 0.0 -0.0 0 0.0 0 0.0 -0.0
0 0 0 0 0 0 0 -0.0 0 0 0.0 0 71.27 0 0 0 0 0 -102.79 0 0 34.26 0.0 0 0 -0.0 0 0 -0.0 0 71.27 0 0 0 0 0 -102.79 0 0 34.26 -0.0 0 0 -0.0 0 -0.0 0 0 -0.0 0 -0.0 0 0.0 0.0 -0.0 0 0.0 0 0.0 -0.0
0 0 0 0 0 0 0 -0.0 0 0 0.0 0 71.04 0 0 0 0 0 -102.44 0 0 34.15 0.0 0 0 -0.0 0 0 -0.0 0 71.04 0 0 0 0 0 -102.44 0 0 34.15 -0.0 0 0 -0.0 0 -0.0 0 0 -0.0 0 -0.0 0 0.0 0.0 -0.0 0 0.0 0 0.0 -0.0
0 0 0 0 0 0 0 -0.0 0 0 0.0 0 70.81 0 0 0 0 0 -102.1 0 0 34.03 0.0 0 0 -0.0 0 0 -0.0 0 70.81 0 0 0 0 0 -102.1 0 0 34.03 -0.0 0 0 -0.0 0 -0.0 0 0 -0.0 0 -0.0 0 0.0 0.0 -0.0 0 0.0 0 0.0 -0.0
0 0 0 0 0 0 0 -0.0 0 0 0.0 0 70.58 0 0 0 0 0 -101.76 0 0 33.92 0.0 0 0 -0.0 0 0 -0.0 0 70.58 0 0 0 0 0 -101.76 0 0 33.92 -0.0 0 0 -0.0 0 -0.0 0 0 -0.0 0 -0.0 0 0.0 0.0 -0.0 0 0.0 0 0.0 -0.0
0 0 0 0 0 0 0 -0.0 0 0 0.0 0 70.36 0 0 0 0 0 -101.41 0 0 33.8 0.0 0 0 -0.0 0 0 -0.0 0 70.36 0 0 0 0 0 -101.41 0 0 33.8 -0.0 0 0 -0.0 0 -0.0 0 0 -0.0 0 -0.0 0 0.0 0.0 -0.0 0 0.0 0 0.0 -0.0
0 0 0 0 0 0 0 -0.0 0 0 0.0 0 70.13 0 0 0 0 0 -101.07 0 0 33.69 0.0 0 0 -0.0 0 0 -0.0 0 70.13 0 0 0 0 0 -101.07 0 0 33.69 -0.0 0 0 -0.0 0 -0.0 0 0 -0.0 0 -0.0 0 0.0 0.0 -0.0 0 0.0 0 0.0 -0.0
0 0 0 0 0 0 0 -0.0 0 0 0.0 0 69.9 0 0 0 0 0 -100.73 0 0 33.58 0.0 0 0 -0.0 0 0 -0.0 0 69.9 0 0 0 0 0 -100.73 0 0 33.58 -0.0 0 0 -0.0 0 -0.0 0 0 -0.0 0 -0.0 0 0.0 0.0 -0.0 0 0.0 0 0.0 -0.0
0 0 0 0 0 0 0 -0.0 0 0 0.0 0 69.67 0 0 0 0 0 -100.38 0 0 33.46 0.0 0 0 -0.0 0 0 -0.0 0 69.67 0 0 0 0 0 -100.38 0 0 33.46 -0.0 0 0 -0.0 0 -0.0 0 0 -0.0 0 -0.0 0 0.0 0.0 -0.0 0 0.0 0 0.0 -0.0
0 0 0 0 0 0 0 -0.0 0 0 0.0 0 69.44 0 0 0 0 0 -100.04 0 0 33.35 0.0 0 0 -0.0 0 0 -0.0 0 69.44 0 0 0 0 0 -100.04 0 0 33.35 -0.0 0 0 -0.0 0 -0.0 0 0 -0.0 0 -0.0 0 0.0 0.0 -0.0 0 0.0 0 0.0 -0.0
0 0 0 0 0 0 0 -0.0 0 0 0.0 0 69.21 0 0 0 0 0 -99.69 0 0 33.23 0.0 0 0 -0.0 0 0 -0.0 0 69.21 0 0 0 0 0 -99.69 0 0 33.23 -0.0 0 0 -0.0 0 -0.0 0 0 -0.0 0 -0.0 0 0.0 0.0 -0.0 0 0.0 0 0.0 -0.0
0 0 0 0 0 0 0 -0.0 0 0 0.0 0 68.98 0 0 0 0 0 -99.35 0 0 33.12 0.0 0 0 -0.0 0 0 -0.0 0 68.98 0 0 0 0 0 -99.35 0 0 33.12 -0.0 0 0 -0.0 0 -0.0 0 0 -0.0 0 -0.0 0 0.0 0.0 -0.0 0 0.0 0 0.0 -0.0
0 0 0 0 0 0 0 -0.0 0 0 0.0 0 68.75 0 0 0 0 0 -99.01 0 0 33.0 0.0 0 0 -0.0 0 0 -0.0 0 68.75 0 0 0 0 0 -99.01 0 0 33.0 -0.0 0 0 -0.0 0 -0.0 0 0 -0.0 0 -0.0 0 0.0 0.0 -0.0 0 0.0 0 0.0 -0.0
0 0 0 0 0 0 0 -0.0 0 0 0.0 0 68.52 0 0 0 0 0 -98.66 0 0 32.89 0.0 0 0 -0.0 0 0 -0.0 0 68.52 0 0 0 0 0 -98.66 0 0 32.89 -0.0 0 0 -0.0 0 -0.0 0 0 -0.0 0 -0.0 0 0.0 0.0 -0.0 0 0.0 0 0.0 -0.0
0 0 0 0 0 0 0 -0.0 0 0 0.0 0 68.29 0 0 0 0 0 -98.32 0 0 32.77 0.0 0 0 -0.0 0 0 -0.0 0 68.29 0 0 0 0 0 -98.32 0 0 32.77 -0.0 0 0 -0.0 0 -0.0 0 0 -0.0 0 -0.0 0 0.0 0.0 -0.0 0 0.0 0 0.0 -0.0
0 0 0 0 0 0 0 -0.0 0 0 0.0 0 68.06 0 0 0 0 0 -97.98 0 0 32.66 0.0 0 0 -0.0 0 0 -0.0 0 68.06 0 0 0 0 0 -97.98 0 0 32.66 -0.0 0 0 -0.0 0 -0.0 0 0 -0.0 0 -0.0 0 0.0 0.0 -0.0 0 0.0 0 0.0 -0.0
0 0 0 0 0 0 0 -0.0 0 0 0.0 0 67.83 0 0 0 0 0 -97.63 0 0 32.54 0.0 0 0 -0.0 0 0 -0.0 0 67.83 0 0 0 0 0 -97.63 0 0 32.54 -0.0 0 0 -0.0 0 -0.0 0 0 -0.0 0 -0.0 0 0.0 0.0 -0.0 0 0.0 0 0.0 -0.0
0 0 0 0 0 0 0 -0.0 0 0 0.0 0 67.61 0 0 0 0 0 -97.29 0 0 32.43 0.0 0 0 -0.0 0 0 -0.0 0 67.61 0 0 0 0 0 -97.29 0 0 32.43 -0.0 0 0 -0.0 0 -0.0 0 0 -0.0 0 -0.0 0 0.0 0.0 -0.0 0 0.0 0 0.0 -0.0
0 0 0 0 0 0 0 -0.0 0 0 0.0 0 67.38 0 0 0 0 0 -96.94 0 0 32.31 0.0 0 0 -0.0 0 0 -0.0 0 67.38 0 0 0 0 0 -96.94 0 0 32.31 -0.0 0 0 -0.0 0 -0.0 0 0 -0.0 0 -0.0 0 0.0 0.0 -0.0 0 0.0 0 0.0 -0.0
0 0 0 0 0 0 0 -0.0 0 0 0.0 0 67.15 0 0 0 0 0 -96.6 0 0 32.2 0.0 0 0 -0.0 0 0 -0.0 0 67.15 0 0 0 0 0 -96.6 0 0 32.2 -0.0 0 0 -0.0 0 -0.0 0 0 -0.0 0 -0.0 0 0.0 0.0 -0.0 0 0.0 0 0.0 -0.0
0 0 0 0 0 0 0 -0.0 0 0 0.0 0 66.92 0 0 0 0 0 -96.26 0 0 32.09 0.0 0 0 -0.0 0 0 -0.0 0 66.92 0 0 0 0 0 -96.26 0 0 32.09 -0.0 0 0 -0.0 0 -0.0 0 0 -0.0 0 -0.0 0 0.0 0.0 -0.0 0 0.0 0 0.0 -0.0
0 0 0 0 0 0 0 -0.0 0 0 0.0 0 66.69 0 0 0 0 0 -95.91 0 0 31.97 0.0 0 0 -0.0 0 0 -0.0 0 66.69 0 0 0 0 0 -95.91 0 0 31.97 -0.0 0 0 -0.0 0 -0.0 0 0 -0.0 0 -0.0 0 0.0 0.0 -0.0 0 0.0 0 0.0 -0.0
0 0 0 0 0 0 0 -0.0 0 0 0.0 0 66.46 0 0 0 0 0 -95.57 0 0 31.86 0.0 0 0 -0.0 0 0 -0.0 0 66.46 0 0 0 0 0 -95.57 0 0 31.86 -0.0 0 0 -0.0 0 -0.0 0 0 -0.0 0 -0.0 0 0.0 0.0 -0.0 0 0.0 0 0.0 -0.0
0 0 0 0 0 0 0 -0.0 0 0 0.0 0 66.23 0 0 0 0 0 -95.23 0 0 31.74 0.0 0 0 -0.0 0 0 -0.0 0 66.23 0 0 0 0 0 -95.23 0 0 31.74 -0.0 0 0 -0.0 0 -0.0 0 0 -0.0 0 -0.0 0 0.0 0.0 -0.0 0 0.0 0 0.0 -0.0
0 0 0 0 0 0 0 -0.0 0 0 0.0 0 66.0 0 0 0 0 0 -94.88 0 0 31.63 0.0 0 0 -0.0 0 0 -0.0 0 66.0 0 0 0 0 0 -94.88 0 0 31.63 -0.0 0 0 -0.0 0 -0.0 0 0 -0.0 0 -0.0 0 0.0 0.0 -0.0 0 0.0 0 0.0 -0.0
0 0 0 0 0 0 0 -0.0 0 0 0.0 0 65.77 0 0 0 0 0 -94.54 0 0 31.51 0.0 0 0 -0.0 0 0 -0.0 0 65.77 0 0 0 0 0 -94.54 0 0 31.51 -0.0 0 0 -0.0 0 -0.0 0 0 -0.0 0 -0.0 0 0.0 0.0 -0.0 0 0.0 0 0.0 -0.0
0 0 0 0 0 0 0 -0.0 0 0 0.0 0 65.54 0 0 0 0 0 -94.19 0 0 31.4 0.0 0 0 -0.0 0 0 -0.0 0 65.54 0 0 0 0 0 -94.19 0 0 31.4 -0.0 0 0 -0.0 0 -0.0 0 0 -0.0 0 -0.0 0 0.0 0.0 -0.0 0 0.0 0 0.0 -0.0
0 0 0 0 0 0 0 -0.0 0 0 0.0 0 65.31 0 0 0 0 0 -93.85 0 0 31.28 0.0 0 0 -0.0 0 0 -0.0 0 65.31 0 0 0 0 0 -93.85 0 0 31.28 -0.0 0 0 -0.0 0 -0.0 0 0 -0.0 0 -0.0 0 0.0 0.0 -0.0 0 0.0 0 0.0 -0.0
0 0 0 0 0 0 0 -0.0 0 0 0.0 0 65.08 0 0 0 0 0 -93.51 0 0 31.17 0.0 0 0 -0.0 0 0 -0.0 0 65.08 0 0 0 0 0 -93.51 0 0 31.17 -0.0 0 0 -0.0 0 -0.0 0 0 -0.0 0 -0.0 0 0.0 0.0 -0.0 0 0.0 0 0.0 -0.0
0 0 0 0 0 0 0 -0.0 0 0 0.0 0 64.86 0 0 0 0 0 -93.16 0 0 31.05 0.0 0 0 -0.0 0 0 -0.0 0 64.86 0 0 0 0 0 -93.16 0 0 31.05 -0.0 0 0 -0.0 0 -0.0 0 0 -0.0 0 -0.0 0 0.0 0.0 -0.0 0 0.0 0 0.0 -0.0
0 0 0 0 0 0 0 -0.0 0 0 0.0 0 64.63 0 0 0 0 0 -92.82 0 0 30.94 0.0 0 0 -0.0 0 0 -0.0 0 64.63 0 0 0 0 0 -92.82 0 0 30.94 -0.0 0 0 -0.0 0 -0.0 0 0 -0.0 0 -0.0 0 0.0 0.0 -0.0 0 0.0 0 0.0 -0.0
0 0 0 0 0 0 0 -0.0 0 0 0.0 0 64.4 0 0 0 0 0 -92.47 0 0 30.82 0.0 0 0 -0.0 0 0 -0.0 0 64.4 0 0 0 0 0 -92.47 0 0 30.82 -0.0 0 0 -0.0 0 -0.0 0 0 -0.0 0 -0.0 0 0.0 0.0 -0.0 0 0.0 0 0.0 -0.0
0 0 0 0 0 0 0 -0.0 0 0 0.0 0 64.17 0 0 0 0 0 -92.13 0 0 30.71 0.0 0 0 -0.0 0 0 -0.0 0 64.17 0 0 0 0 0 -92.13 0 0 30.71 -0.0 0 0 -0.0 0 -0.0 0 0 -0.0 0 -0.0 0 0.0 0.0 -0.0 0 0.0 0 0.0 -0.0
0 0 0 0 0 0 0 -0.0 0 0 0.0 0 63.94 0 0 0 0 0 -91.79 0 0 30.6 0.0 0 0 -0.0 0 0 -0.0 0 63.94 0 0 0 0 0 -91.79 0 0 30.6 -0.0 0 0 -0.0 0 -0.0 0 0 -0.0 0 -0.0 0 0.0 0.0 -0.0 0 0.0 0 0.0 -0.0
0 0 0 0 0 0 0 -0.0 0 0 0.0 0 63.71 0 0 0 0 0 -91.44 0 0 30.48 0.0 0 0 -0.0 0 0 -0.0 0 63.71 0 0 0 0 0 -91.44 0 0 30.48 -0.0 0 0 -0.0 0 -0.0 0 0 -0.0 0 -0.0 0 0.0 0.0 -0.0 0 0.0 0 0.0 -0.0
0 0 0 0 0 0 0 -0.0 0 0 0.0 0 63.48 0 0 0 0 0 -91.1 0 0 30.37 0.0 0 0 -0.0 0 0 -0.0 0 63.48 0 0 0 0 0 -91.1 0 0 30.37 -0.0 0 0 -0.0 0 -0.0 0 0 -0.0 0 -0.0 0 0.0 0.0 -0.0 0 0.0 0 0.0 -0.0
0 0 0 0 0 0 0 -0.0 0 0 0.0 0 63.25 0 0 0 0 0 -90.76 0 0 30.25 0.0 0 0 -0.0 0 0 -0.0 0 63.25 0 0 0 0 0 -90.76 0 0 30.25 -0.0 0 0 -0.0 0 -0.0 0 0 -0.0 0 -0.0 0 0.0 0.0 -0.0 0 0.0 0 0.0 -0.0
0 0 0 0 0 0 0 -0.0 0 0 0.0 0 63.02 0 0 0 0 0 -90.41 0 0 30.14 0.0 0 0 -0.0 0 0 -0.0 0 63.02 0 0 0 0 0 -90.41 0 0 30.14 -0.0 0 0 -0.0 0 -0.0 0 0 -0.0 0 -0.0 0 0.0 0.0 -0.0 0 0.0 0 0.0 -0.0
0 0 0 0 0 0 0 -0.0 0 0 0.0 0 62.79 0 0 0 0 0 -90.07 0 0 30.02 0.0 0 0 -0.0 0 0 -0.0 0 62.79 0 0 0 0 0 -90.07 0 0 30.02 -0.0 0 0 -0.0 0 -0.0 0 0 -0.0 0 -0.0 0 0.0 0.0 -0.0 0 0.0 0 0.0 -0.0
0 0 0 0 0 0 0 -0.0 0 0 0.0 0 62.56 0 0 0 0 0 -89.72 0 0 29.91 0.0 0 0 -0.0 0 0 -0.0 0 62.56 0 0 0 0 0 -89.72 0 0 29.91 -0.0 0 0 -0.0 0 -0.0 0 0 -0.0 0 -0.0 0 0.0 0.0 -0.0 0 0.0 0 0.0 -0.0
0 0 0 0 0 0 0 -0.0 0 0 0.0 0 62.33 0 0 0 0 0 -89.38 0 0 29.79 0.0 0 0 -0.0 0 0 -0.0 0 62.33 0 0 0 0 0 -89.38 0 0 29.79 -0.0 0 0 -0.0 0 -0.0 0 0 -0.0 0 -0.0 0 0.0 0.0 -0.0 0 0.0 0 0.0 -0.0
0 0 0 0 0 0 0 -0.0 0 0 0.0 0 62.11 0 0 0 0 0 -89.04 0 0 29.68 0.0 0 0 -0.0 0 0 -0.0 0 62.11 0 0 0 0 0 -89.04 0 0 29.68 -0.0 0 0 -0.0 0 -0.0 0 0 -0.0 0 -0.0 0 0.0 0.0 -0.0 0 0.0 0 0.0 -0.0
0 0 0 0 0 0 0 -0.0 0 0 0.0 0 61.88 0 0 0 0 0 -88.69 0 0 29.56 0.0 0 0 -0.0 0 0 -0.0 0 61.88 0 0 0 0 0 -88.69 0 0 29.56 -0.0 0 0 -0.0 0 -0.0 0 0 -0.0 0 -0.0 0 0.0 0.0 -0.0 0 0.0 0 0.0 -0.0
0 0 0 0 0 0 0 -0.0 0 0 0.0 0 61.65 0 0 0 0 0 -88.35 0 0 29.45 0.0 0 0 -0.0 0 0 -0.0 0 61.65 0 0 0 0 0 -88.35 0 0 29.45 -0.0 0 0 -0.0 0 -0.0 0 0 -0.0 0 -0.0 0 0.0 0.0 -0.0 0 0.0 0 0.0 -0.0
0 0 0 0 0 0 0 -0.0 0 0 0.0 0 61.42 0 0 0 0 0 -88.01 0 0 29.34 0.0 0 0 -0.0 0 0 -0.0 0 61.42 0 0 0 0 0 -88.01 0 0 29.34 -0.0 0 0 -0.0 0 -0.0 0 0 -0.0 0 -0.0 0 0.0 0.0 -0.0 0 0.0 0 0.0 -0.0
0 0 0 0 0 0 0 -0.0 0 0 0.0 0 61.19 0 0 0 0 0 -87.66 0 0 29.22 0.0 0 0 -0.0 0 0 -0.0 0 61.19 0 0 0 0 0 -87.66 0 0 29.22 -0.0 0 0 -0.0 0 -0.0 0 0 -0.0 0 -0.0 0 0.0 0.0 -0.0 0 0.0 0 0.0 -0.0
0 0 0 0 0 0 0 -0.0 0 0 0.0 0 60.96 0 0 0 0 0 -87.32 0 0 29.11 0.0 0 0 -0.0 0 0 -0.0 0 60.96 0 0 0 0 0 -87.32 0 0 29.11 -0.0 0 0 -0.0 0 -0.0 0 0 -0.0 0 -0.0 0 0.0 0.0 -0.0 0 0.0 0 0.0 -0.0
0 0 0 0 0 0 0 -0.0 0 0 0.0 0 60.73 0 0 0 0 0 -86.97 0 0 28.99 0.0 0 0 -0.0 0 0 -0.0 0 60.73 0 0 0 0 0 -86.97 0 0 28.99 -0.0 0 0 -0.0 0 -0.0 0 0 -0.0 0 -0.0 0 0.0 0.0 -0.0 0 0.0 0 0.0 -0.0
0 0 0 0 0 0 0 -0.0 0 0 0.0 0 60.5 0 0 0 0 0 -86.63 0 0 28.88 0.0 0 0 -0.0 0 0 -0.0 0 60.5 0 0 0 0 0 -86.63 0 0 28.88 -0.0 0 0 -0.0 0 -0.0 0 0 -0.0 0 -0.0 0 0.0 0.0 -0.0 0 0.0 0 0.0 -0.0
0 0 0 0 0 0 0 -0.0 0 0 0.0 0 60.27 0 0 0 0 0 -86.29 0 0 28.76 0.0 0 0 -0.0 0 0 -0.0 0 60.27 0 0 0 0 0 -86.29 0 0 28.76 -0.0 0 0 -0.0 0 -0.0 0 0 -0.0 0 -0.0 0 0.0 0.0 -0.0 0 0.0 0 0.0 -0.0
0 0 0 0 0 0 0 -0.0 0 0 0.0 0 60.04 0 0 0 0 0 -85.94 0 0 28.65 0.0 0 0 -0.0 0 0 -0.0 0 60.04 0 0 0 0 0 -85.94 0 0 28.65 -0.0 0 0 -0.0 0 -0.0 0 0 -0.0 0 -0.0 0 0.0 0.0 -0.0 0 0.0 0 0.0 -0.0
0 0 0 0 0 0 0 -0.0 0 0 0.0 0 59.81 0 0 0 0 0 -85.6 0 0 28.53 0.0 0 0 -0.0 0 0 -0.0 0 59.81 0 0 0 0 0 -85.6 0 0 28.53 -0.0 0 0 -0.0 0 -0.0 0 0 -0.0 0 -0.0 0 0.0 0.0 -0.0 0 0.0 0 0.0 -0.0
0 0 0 0 0 0 0 -0.0 0 0 0.0 0 59.58 0 0 0 0 0 -85.26 0 0 28.42 0.0 0 0 -0.0 0 0 -0.0 0 59.58 0 0 0 0 0 -85.26 0 0 28.42 -0.0 0 0 -0.0 0 -0.0 0 0 -0.0 0 -0.0 0 0.0 0.0 -0.0 0 0.0 0 0.0 -0.0
0 0 0 0 0 0 0 -0.0 0 0 0.0 0 59.35 0 0 0 0 0 -84.91 0 0 28.3 0.0 0 0 -0.0 0 0 -0.0 0 59.35 0 0 0 0 0 -84.91 0 0 28.3 -0.0 0 0 -0.0 0 -0.0 0 0 -0.0 0 -0.0 0 0.0 0.0 -0.0 0 0.0 0 0.0 -0.0
0 0 0 0 0 0 0 -0.0 0 0 0.0 0 59.13 0 0 0 0 0 -84.57 0 0 28.19 0.0 0 0 -0.0 0 0 -0.0 0 59.13 0 0 0 0 0 -84.57 0 0 28.19 -0.0 0 0 -0.0 0 -0.0 0 0 -0.0 0 -0.0 0 0.0 0.0 -0.0 0 0.0 0 0.0 -0.0
0 0 0 0 0 0 0 -0.0 0 0 0.0 0 58.9 0 0 0 0 0 -84.22 0 0 28.07 0.0 0 0 -0.0 0 0 -0.0 0 58.9 0 0 0 0 0 -84.22 0 0 28.07 -0.0 0 0 -0.0 0 -0.0 0 0 -0.0 0 -0.0 0 0.0 0.0 -0.0 0 0.0 0 0.0 -0.0
0 0 0 0 0 0 0 -0.0 0 0 0.0 0 58.67 0 0 0 0 0 -83.88 0 0 27.96 0.0 0 0 -0.0 0 0 -0.0 0 58.67 0 0 0 0 0 -83.88 0 0 27.96 -0.0 0 0 -0.0 0 -0.0 0 0 -0.0 0 -0.0 0 0.0 0.0 -0.0 0 0.0 0 0.0 -0.0
0 0 0 0 0 0 0 -0.0 0 0 0.0 0 58.44 0 0 0 0 0 -83.54 0 0 27.85 0.0 0 0 -0.0 0 0 -0.0 0 58.44 0 0 0 0 0 -83.54 0 0 27.85 -0.0 0 0 -0.0 0 -0.0 0 0 -0.0 0 -0.0 0 0.0 0.0 -0.0 0 0.0 0 0.0 -0.0
